<mxfile host="app.diagrams.net" modified="2023-10-15T05:21:39.106Z" agent="Mozilla/5.0 (Windows NT 10.0; Win64; x64) AppleWebKit/537.36 (KHTML, like Gecko) Chrome/117.0.0.0 Safari/537.36 Edg/117.0.2045.60" etag="qOnqpDxkG_JQr4jyvA3Z" version="22.0.4" type="github">
  <diagram name="Page-1" id="Jv3dn-InHz_XRh-mlbiu">
    <mxGraphModel dx="996" dy="569" grid="1" gridSize="10" guides="1" tooltips="1" connect="1" arrows="1" fold="1" page="1" pageScale="1" pageWidth="850" pageHeight="1100" math="0" shadow="0">
      <root>
        <mxCell id="0" />
        <mxCell id="1" parent="0" />
        <mxCell id="IvtEMfIXniqdG9CkL-q9-7" value="" style="edgeStyle=orthogonalEdgeStyle;rounded=0;orthogonalLoop=1;jettySize=auto;html=1;" parent="1" source="IvtEMfIXniqdG9CkL-q9-1" target="IvtEMfIXniqdG9CkL-q9-4" edge="1">
          <mxGeometry relative="1" as="geometry" />
        </mxCell>
        <mxCell id="jnugEWC_GVPC8t9UZzBM-3" value="" style="edgeStyle=orthogonalEdgeStyle;rounded=0;orthogonalLoop=1;jettySize=auto;html=1;" edge="1" parent="1" source="IvtEMfIXniqdG9CkL-q9-1" target="IvtEMfIXniqdG9CkL-q9-3">
          <mxGeometry relative="1" as="geometry" />
        </mxCell>
        <mxCell id="IvtEMfIXniqdG9CkL-q9-1" value="Student Class&lt;br&gt;" style="whiteSpace=wrap;html=1;aspect=fixed;" parent="1" vertex="1">
          <mxGeometry x="120" y="80" width="80" height="80" as="geometry" />
        </mxCell>
        <mxCell id="IvtEMfIXniqdG9CkL-q9-2" value="The student group tester" style="whiteSpace=wrap;html=1;aspect=fixed;" parent="1" vertex="1">
          <mxGeometry x="120" y="400" width="80" height="80" as="geometry" />
        </mxCell>
        <mxCell id="IvtEMfIXniqdG9CkL-q9-16" value="" style="edgeStyle=orthogonalEdgeStyle;rounded=0;orthogonalLoop=1;jettySize=auto;html=1;" parent="1" source="IvtEMfIXniqdG9CkL-q9-3" target="IvtEMfIXniqdG9CkL-q9-15" edge="1">
          <mxGeometry relative="1" as="geometry" />
        </mxCell>
        <mxCell id="jnugEWC_GVPC8t9UZzBM-5" value="" style="edgeStyle=orthogonalEdgeStyle;rounded=0;orthogonalLoop=1;jettySize=auto;html=1;" edge="1" parent="1" source="IvtEMfIXniqdG9CkL-q9-3">
          <mxGeometry relative="1" as="geometry">
            <mxPoint x="160" y="400" as="targetPoint" />
          </mxGeometry>
        </mxCell>
        <mxCell id="IvtEMfIXniqdG9CkL-q9-3" value="GroupOf&lt;br&gt;Students" style="whiteSpace=wrap;html=1;aspect=fixed;" parent="1" vertex="1">
          <mxGeometry x="120" y="230" width="80" height="80" as="geometry" />
        </mxCell>
        <mxCell id="IvtEMfIXniqdG9CkL-q9-6" value="" style="edgeStyle=orthogonalEdgeStyle;rounded=0;orthogonalLoop=1;jettySize=auto;html=1;" parent="1" source="IvtEMfIXniqdG9CkL-q9-4" target="IvtEMfIXniqdG9CkL-q9-5" edge="1">
          <mxGeometry relative="1" as="geometry" />
        </mxCell>
        <mxCell id="IvtEMfIXniqdG9CkL-q9-4" value="Two Constructors&lt;br&gt;1. Student Class(ID, name,,score)&lt;br&gt;2.Student class(ID, Name,-1)" style="text;html=1;strokeColor=none;fillColor=none;align=center;verticalAlign=middle;whiteSpace=wrap;rounded=0;" parent="1" vertex="1">
          <mxGeometry x="240" y="100" width="240" height="30" as="geometry" />
        </mxCell>
        <mxCell id="IvtEMfIXniqdG9CkL-q9-5" value="public Student withScore();&lt;br&gt;//return the Student instacne with ID,Name,Score" style="text;html=1;strokeColor=none;fillColor=none;align=center;verticalAlign=middle;whiteSpace=wrap;rounded=0;" parent="1" vertex="1">
          <mxGeometry x="500" y="100" width="300" height="30" as="geometry" />
        </mxCell>
        <mxCell id="IvtEMfIXniqdG9CkL-q9-15" value="&lt;br&gt;&lt;span style=&quot;color: rgb(0, 0, 0); font-family: Helvetica; font-size: 12px; font-style: normal; font-variant-ligatures: normal; font-variant-caps: normal; font-weight: 400; letter-spacing: normal; orphans: 2; text-align: center; text-indent: 0px; text-transform: none; widows: 2; word-spacing: 0px; -webkit-text-stroke-width: 0px; background-color: rgb(251, 251, 251); text-decoration-thickness: initial; text-decoration-style: initial; text-decoration-color: initial; float: none; display: inline !important;&quot;&gt;ArrayLIst&amp;lt;Student&amp;gt;&amp;nbsp; list= new ArrauyList&amp;lt;&amp;gt;&lt;br&gt;&lt;/span&gt;list.addStudent(ID,Name,Score);&lt;br&gt;list.updatStudent(ID,Name,Score);&lt;br&gt;list.sort();By using Enum&lt;br&gt;&lt;br&gt;" style="text;html=1;strokeColor=none;fillColor=none;align=center;verticalAlign=middle;whiteSpace=wrap;rounded=0;" parent="1" vertex="1">
          <mxGeometry x="260" y="220" width="230" height="85" as="geometry" />
        </mxCell>
        <mxCell id="jnugEWC_GVPC8t9UZzBM-2" value="Enum{BY-ID,BY_NAME,BY_SCORE}&lt;br&gt;Using Switch;//Interface" style="text;html=1;strokeColor=none;fillColor=none;align=center;verticalAlign=middle;whiteSpace=wrap;rounded=0;" vertex="1" parent="1">
          <mxGeometry x="240" y="290" width="250" height="30" as="geometry" />
        </mxCell>
      </root>
    </mxGraphModel>
  </diagram>
</mxfile>
